<mxfile host="app.diagrams.net" agent="Mozilla/5.0 (X11; Ubuntu; Linux x86_64; rv:132.0) Gecko/20100101 Firefox/132.0" version="24.8.6">
  <diagram name="Page-1" id="Zdn-C2N3vjBsEBBfVQxq">
    <mxGraphModel dx="1362" dy="1895" grid="1" gridSize="10" guides="1" tooltips="1" connect="1" arrows="1" fold="1" page="1" pageScale="1" pageWidth="850" pageHeight="1100" math="0" shadow="0">
      <root>
        <mxCell id="0" />
        <mxCell id="1" parent="0" />
        <mxCell id="afbzR2O5z8li9ZHhE41--1" value="&lt;div&gt;HN: BIH&lt;br&gt;&lt;/div&gt;&lt;div&gt;IP: 10.10.0.40&lt;br&gt;&lt;/div&gt;&lt;div&gt;Ports: 21,22,23,80&lt;br&gt;&lt;/div&gt;&lt;div&gt;Float: &lt;code&gt;&lt;code&gt;&lt;code&gt;10.50.24.152&lt;/code&gt;&lt;/code&gt;&lt;/code&gt;&lt;/div&gt;" style="ellipse;whiteSpace=wrap;html=1;" vertex="1" parent="1">
          <mxGeometry y="160" width="160" height="160" as="geometry" />
        </mxCell>
        <mxCell id="afbzR2O5z8li9ZHhE41--2" value="&lt;div&gt;HN: capstone-01&lt;br&gt;&lt;/div&gt;&lt;div&gt;IP: 10.1.1.30&lt;br&gt;&lt;/div&gt;&lt;div&gt;Ports: 22,80&lt;br&gt;&lt;/div&gt;&lt;div&gt;Float: 10.50.20.84&lt;br&gt;&lt;/div&gt;" style="ellipse;whiteSpace=wrap;html=1;" vertex="1" parent="1">
          <mxGeometry x="200" y="160" width="160" height="160" as="geometry" />
        </mxCell>
        <mxCell id="afbzR2O5z8li9ZHhE41--3" value="&lt;div&gt;HN: &lt;br&gt;&lt;/div&gt;&lt;div&gt;IP: &lt;br&gt;&lt;/div&gt;&lt;div&gt;Ports: &lt;br&gt;&lt;/div&gt;" style="ellipse;whiteSpace=wrap;html=1;" vertex="1" parent="1">
          <mxGeometry y="560" width="160" height="160" as="geometry" />
        </mxCell>
        <mxCell id="afbzR2O5z8li9ZHhE41--4" value="&lt;div&gt;HN: capstone-02&lt;br&gt;&lt;/div&gt;&lt;div&gt;IP: 10.1.1.11&lt;br&gt;&lt;/div&gt;&lt;div&gt;Ports: 21,23&lt;br&gt;&lt;/div&gt;&lt;div&gt;web: 1918&lt;/div&gt;&lt;div&gt;pcap in share folder&lt;br&gt;&lt;/div&gt;" style="ellipse;whiteSpace=wrap;html=1;" vertex="1" parent="1">
          <mxGeometry x="400" y="160" width="160" height="160" as="geometry" />
        </mxCell>
        <mxCell id="afbzR2O5z8li9ZHhE41--5" value="&lt;div&gt;HN: &lt;br&gt;&lt;/div&gt;&lt;div&gt;IP: 10.1.1.25&lt;br&gt;&lt;/div&gt;&lt;div&gt;Ports: 21&lt;/div&gt;&lt;div&gt;web: 791&lt;/div&gt;&lt;div&gt;ftp: student creds&lt;br&gt;&lt;/div&gt;" style="ellipse;whiteSpace=wrap;html=1;" vertex="1" parent="1">
          <mxGeometry x="600" y="160" width="160" height="160" as="geometry" />
        </mxCell>
        <mxCell id="afbzR2O5z8li9ZHhE41--6" value="&lt;div&gt;HN: &lt;br&gt;&lt;/div&gt;&lt;div&gt;IP: 10.1.1.33&lt;br&gt;&lt;/div&gt;&lt;div&gt;Ports: 21,23,80&lt;/div&gt;&lt;div&gt;&lt;br&gt;&lt;/div&gt;" style="ellipse;whiteSpace=wrap;html=1;" vertex="1" parent="1">
          <mxGeometry x="800" y="160" width="160" height="160" as="geometry" />
        </mxCell>
        <mxCell id="afbzR2O5z8li9ZHhE41--7" value="&lt;div&gt;HN: capstone-05&lt;br&gt;&lt;/div&gt;&lt;div&gt;IP: &lt;br&gt;&lt;/div&gt;&lt;div&gt;Ports: 80&lt;/div&gt;&lt;div&gt;use sniffing tool&lt;br&gt;&lt;/div&gt;" style="ellipse;whiteSpace=wrap;html=1;" vertex="1" parent="1">
          <mxGeometry x="800" y="-40" width="160" height="160" as="geometry" />
        </mxCell>
        <mxCell id="afbzR2O5z8li9ZHhE41--8" value="&lt;div&gt;HN: &lt;br&gt;&lt;/div&gt;&lt;div&gt;IP: &lt;br&gt;&lt;/div&gt;&lt;div&gt;Ports:&amp;nbsp;&lt;/div&gt;&lt;div&gt;RIPv2 10.1.1.0/25&lt;/div&gt;&lt;div&gt;sniff port 520&lt;br&gt;&lt;/div&gt;" style="ellipse;whiteSpace=wrap;html=1;" vertex="1" parent="1">
          <mxGeometry y="-40" width="160" height="160" as="geometry" />
        </mxCell>
        <mxCell id="afbzR2O5z8li9ZHhE41--9" value="" style="endArrow=classic;html=1;rounded=0;entryX=0.5;entryY=0;entryDx=0;entryDy=0;exitX=0.5;exitY=1;exitDx=0;exitDy=0;" edge="1" parent="1" source="afbzR2O5z8li9ZHhE41--7" target="afbzR2O5z8li9ZHhE41--6">
          <mxGeometry width="50" height="50" relative="1" as="geometry">
            <mxPoint x="690" y="-10" as="sourcePoint" />
            <mxPoint x="740" y="-60" as="targetPoint" />
          </mxGeometry>
        </mxCell>
        <mxCell id="afbzR2O5z8li9ZHhE41--10" value="" style="endArrow=classic;html=1;rounded=0;exitX=1;exitY=0.5;exitDx=0;exitDy=0;entryX=0;entryY=0.5;entryDx=0;entryDy=0;" edge="1" parent="1" source="afbzR2O5z8li9ZHhE41--1" target="afbzR2O5z8li9ZHhE41--2">
          <mxGeometry width="50" height="50" relative="1" as="geometry">
            <mxPoint x="170" y="170" as="sourcePoint" />
            <mxPoint x="220" y="120" as="targetPoint" />
          </mxGeometry>
        </mxCell>
        <mxCell id="afbzR2O5z8li9ZHhE41--11" value="" style="endArrow=classic;html=1;rounded=0;exitX=0.5;exitY=0;exitDx=0;exitDy=0;entryX=0.5;entryY=1;entryDx=0;entryDy=0;" edge="1" parent="1" source="afbzR2O5z8li9ZHhE41--1" target="afbzR2O5z8li9ZHhE41--8">
          <mxGeometry width="50" height="50" relative="1" as="geometry">
            <mxPoint x="140" y="140" as="sourcePoint" />
            <mxPoint x="260" y="70" as="targetPoint" />
          </mxGeometry>
        </mxCell>
        <mxCell id="afbzR2O5z8li9ZHhE41--12" value="" style="endArrow=classic;html=1;rounded=0;exitX=1;exitY=0.5;exitDx=0;exitDy=0;entryX=0;entryY=0.5;entryDx=0;entryDy=0;" edge="1" parent="1" source="afbzR2O5z8li9ZHhE41--2" target="afbzR2O5z8li9ZHhE41--4">
          <mxGeometry width="50" height="50" relative="1" as="geometry">
            <mxPoint x="370" y="140" as="sourcePoint" />
            <mxPoint x="420" y="90" as="targetPoint" />
          </mxGeometry>
        </mxCell>
      </root>
    </mxGraphModel>
  </diagram>
</mxfile>
